<svg xmlns="http://www.w3.org/2000/svg" width="1500" height="512" viewBox="0 0 1500 512" version="1.1"><path d="M 294.684 185.437 C 287.426 188.048, 284 192.975, 284 200.802 C 284 213.169, 298.207 221.422, 308.010 214.750 C 313.660 210.905, 315.500 207.551, 315.500 201.099 C 315.500 196.336, 315.017 194.711, 312.698 191.671 C 307.984 185.491, 301.130 183.119, 294.684 185.437 M 328.253 190.646 C 325.944 191.785, 324.679 193.338, 323.874 196.027 C 321.303 204.607, 325.698 210.986, 334.411 211.323 C 339.716 211.529, 342.229 209.585, 344.564 203.472 C 346.573 198.210, 345.326 194.804, 340.102 191.287 C 336.125 188.610, 332.754 188.428, 328.253 190.646 M 261.419 191.053 C 256.793 192.429, 254.500 195.526, 254.500 200.399 C 254.500 211.981, 267.535 216.735, 274.433 207.669 C 278.818 201.907, 278.707 195.172, 274.182 192.346 C 271.534 190.692, 264.894 190.019, 261.419 191.053 M 236.637 195.506 C 233.656 198.487, 233.642 201.017, 236.590 204.094 C 238.121 205.692, 240.210 207, 241.233 207 C 243.506 207, 248 202.683, 248 200.500 C 248 198.059, 243.389 194, 240.617 194 C 239.256 194, 237.465 194.678, 236.637 195.506 M 355.259 195.250 C 354.717 195.938, 353.984 198.395, 353.631 200.712 C 352.884 205.607, 354.396 207, 360.459 207 C 364.862 207, 366.563 203.912, 364.856 199.016 C 363.274 194.478, 357.618 192.259, 355.259 195.250 M 1258 245.500 L 1258 291 1267 291 L 1276 291 1276 245.500 L 1276 200 1267 200 L 1258 200 1258 245.500 M 515.775 205.559 C 508.579 209.464, 509.536 219.372, 517.359 221.953 C 519.591 222.690, 521.557 222.739, 523.238 222.099 C 526.025 221.040, 530 216.069, 530 213.643 C 530 210.684, 527.595 206.842, 524.855 205.425 C 521.411 203.644, 519.245 203.676, 515.775 205.559 M 236.096 215.265 C 232.268 217.232, 229.759 221.401, 229.639 225.997 C 229.544 229.614, 230.033 230.642, 233.250 233.590 C 237.471 237.459, 242.027 238.072, 247.093 235.452 C 250.587 233.645, 252.009 230.512, 251.978 224.685 C 251.934 216.368, 243.585 211.416, 236.096 215.265 M 609 221.855 L 609 229.711 605.750 230.639 C 602.544 231.555, 602.496 231.659, 602.205 238.244 L 601.910 244.920 605.205 245.771 L 608.500 246.622 609.168 260.649 C 609.933 276.719, 611.001 281.659, 614.646 285.991 C 619.288 291.507, 629.002 293.638, 636.922 290.877 C 640.841 289.511, 641.966 286.879, 641.270 280.705 L 640.741 276.011 635.874 276.223 C 628.131 276.560, 627.566 275.475, 627.152 259.465 L 626.804 246 633.902 246 L 641 246 641 238.614 L 641 231.227 636.341 230.528 C 627.214 229.160, 627 228.942, 627 221.025 L 627 214 618 214 L 609 214 609 221.855 M 352.954 216.282 C 349.673 218.867, 348 222.532, 348 227.134 C 348 231.142, 348.447 232.198, 351.077 234.411 C 356.479 238.957, 367.635 236.875, 369.509 230.970 C 370.851 226.745, 369.091 220.254, 365.868 217.543 C 362.533 214.736, 355.755 214.074, 352.954 216.282 M 267.066 225.643 C 264.317 229.138, 263.703 231.576, 264.973 233.950 C 267.314 238.323, 274.926 237.451, 277.157 232.556 C 278.613 229.360, 276.380 225.677, 272.078 224.177 C 269.384 223.238, 268.831 223.400, 267.066 225.643 M 291.974 226.872 C 288.272 230.574, 287.409 234.161, 289.131 238.686 C 290.976 243.532, 294.862 246.273, 299.889 246.273 C 307.890 246.273, 313.303 239.293, 311.074 231.852 C 309.477 226.523, 305.851 224, 299.788 224 C 295.679 224, 294.362 224.484, 291.974 226.872 M 323.655 225.829 C 318.627 231.385, 326.260 239.607, 333.066 235.965 C 334.514 235.190, 335 233.858, 335 230.665 C 335 228.319, 334.460 225.860, 333.800 225.200 C 331.932 223.332, 325.557 223.728, 323.655 225.829 M 673.407 230.002 C 671.155 230.464, 667.628 231.546, 665.569 232.407 C 661.727 234.012, 653.999 239.642, 654.001 240.834 C 654.003 242.055, 663.761 247, 666.147 246.989 C 667.441 246.983, 670.690 246.314, 673.366 245.502 C 678.489 243.948, 679.142 244.075, 682.750 247.323 C 686.752 250.926, 685.650 251.693, 675.737 252.212 C 664.796 252.784, 658.979 254.982, 654.299 260.312 C 650.365 264.793, 649.331 269.776, 650.840 276.989 C 652.224 283.608, 654.387 286.756, 659.594 289.734 C 664.237 292.389, 673.251 292.723, 679.500 290.471 C 684.754 288.578, 687.039 288.651, 696 291 C 700.125 292.081, 703.612 292.973, 703.750 292.983 C 703.888 292.992, 704 283.397, 704 271.659 C 704 248.472, 703.233 243.616, 698.611 237.557 C 693.937 231.429, 682.767 228.080, 673.407 230.002 M 448.703 230.731 C 445.538 231.061, 445.003 231.436, 445.494 232.982 C 445.818 234.003, 450.612 245.337, 456.147 258.169 C 461.682 271.001, 466.887 283.137, 467.714 285.139 C 470.169 291.085, 476.807 292.831, 481.446 288.750 C 483.168 287.235, 487.768 277.546, 495.522 259.103 C 501.857 244.035, 506.898 231.565, 506.724 231.390 C 506.550 231.216, 502.989 230.945, 498.812 230.787 C 490.461 230.471, 488.111 231.596, 486.207 236.822 C 485.670 238.295, 483.330 244.787, 481.006 251.250 C 478.682 257.712, 476.474 263, 476.099 263 C 475.493 263, 473.471 257.862, 466.723 239.174 C 465.366 235.417, 463.872 233.283, 461.650 231.928 C 458.599 230.068, 456.735 229.896, 448.703 230.731 M 543.250 230.732 L 539 231.115 539 261.057 L 539 291 548 291 L 557 291 557.004 271.250 C 557.007 253.380, 557.195 251.193, 558.973 248.277 C 561.142 244.720, 563.764 243.699, 569.496 244.180 C 572.290 244.415, 573.859 245.250, 575.401 247.321 C 577.342 249.931, 577.525 251.677, 577.839 270.571 L 578.178 291 587.215 291 L 596.252 291 595.789 267.750 C 595.278 242.117, 594.744 239.487, 589.091 234.730 C 583.585 230.097, 579.122 229.358, 568.050 231.248 C 559.609 232.688, 557.886 232.719, 554.443 231.492 C 552.274 230.720, 549.825 230.147, 549 230.219 C 548.175 230.291, 545.587 230.522, 543.250 230.732 M 731.385 231.658 C 725.681 233.624, 719.970 238.801, 716.526 245.129 C 714.171 249.457, 713.535 252.027, 713.189 258.621 C 712.586 270.107, 714.623 275.783, 721.991 283.151 C 730.207 291.367, 739.594 293.832, 750.341 290.598 L 755 289.196 754.978 291.848 C 754.947 295.594, 751.548 302.637, 749.151 303.919 C 745.854 305.684, 740.619 305.163, 734.519 302.466 C 731.368 301.072, 728.026 300.174, 727.093 300.470 C 726.161 300.766, 723.643 302.805, 721.499 305.001 L 717.601 308.993 721.038 312.539 C 733.022 324.904, 752.723 324.164, 765.201 310.881 C 773.635 301.904, 774 299.919, 774 263.056 L 774 231.188 769.250 230.652 C 759.589 229.563, 735.617 230.200, 731.385 231.658 M 802 232.013 C 794.804 234.552, 786.940 242.655, 784.478 250.067 C 780.424 262.271, 785.415 280.019, 794.641 286.208 C 800.495 290.135, 809.905 292.334, 818.480 291.779 C 826.686 291.248, 833.109 288.640, 837.842 283.918 L 841.183 280.584 835.397 275.450 L 829.611 270.316 825.476 273.230 C 819.853 277.194, 814.508 277.810, 809.206 275.105 C 804.854 272.885, 803 270.489, 803 267.086 C 803 265.100, 803.601 265.033, 823.750 264.770 L 844.500 264.500 844.258 258.203 C 844.115 254.499, 843.142 249.876, 841.894 246.976 C 835.984 233.238, 817.828 226.428, 802 232.013 M 899.183 231.854 C 894.406 233.547, 887 239.200, 887 241.154 C 887 242.620, 895.703 247, 898.588 246.985 C 900.190 246.977, 903.400 246.309, 905.723 245.500 C 910.613 243.796, 913.920 244.620, 916.399 248.159 C 917.280 249.416, 918 250.728, 918 251.074 C 918 251.420, 914.513 251.979, 910.250 252.316 C 901.202 253.030, 892.810 255.342, 888.979 258.174 C 887.488 259.276, 885.258 261.975, 884.023 264.173 C 882.173 267.464, 881.850 269.297, 882.186 274.573 C 883.047 288.096, 892.267 293.238, 909.977 290.073 C 915.531 289.081, 918.201 289.143, 925.589 290.435 C 930.490 291.292, 934.837 291.995, 935.250 291.997 C 935.663 291.999, 936 281.496, 936 268.657 C 936 246.148, 935.917 245.157, 933.672 240.907 C 932.145 238.015, 929.681 235.469, 926.503 233.500 C 922.250 230.864, 920.620 230.468, 913.081 230.235 C 906.691 230.038, 903.142 230.451, 899.183 231.854 M 948 274.500 L 948 319 957 319 L 966 319 966 303.883 L 966 288.767 968.250 289.475 C 969.487 289.864, 974.349 290.418, 979.052 290.704 C 986.413 291.153, 988.327 290.915, 992.794 288.993 C 1003.182 284.525, 1009.008 274.172, 1008.990 260.212 C 1008.983 254.234, 1008.455 251.376, 1006.642 247.500 C 1003.936 241.716, 996.729 234.688, 990.690 231.946 C 985.684 229.674, 976.899 229.419, 971.327 231.385 C 968.017 232.553, 966.234 232.561, 959.951 231.437 C 955.853 230.705, 951.487 230.082, 950.250 230.053 L 948 230 948 274.500 M 1018 274.515 L 1018 319 1027 319 L 1036 319 1036 303.883 L 1036 288.767 1038.750 289.345 C 1051.506 292.028, 1053.879 292.177, 1059.209 290.628 C 1066.185 288.600, 1071.868 283.620, 1075.498 276.355 C 1078.070 271.207, 1078.427 269.414, 1078.454 261.500 C 1078.478 254.157, 1078.051 251.540, 1076.134 247.286 C 1070.949 235.779, 1058.961 228.870, 1047.075 230.539 C 1039.649 231.582, 1031.857 231.660, 1024.250 230.765 L 1018 230.031 1018 274.515 M 1101 231.480 C 1096.010 233.092, 1089 238.379, 1089 240.531 C 1089 242.635, 1097.210 247.005, 1101.088 246.965 C 1102.965 246.945, 1105.625 246.286, 1107 245.500 C 1110.594 243.446, 1113.623 243.679, 1115.961 246.189 C 1120.082 250.612, 1118.868 251.673, 1109.046 252.233 C 1098.546 252.832, 1092.219 255.461, 1087.769 261.074 C 1084.527 265.163, 1082.821 273.273, 1084.053 278.737 C 1085.079 283.282, 1090.228 288.540, 1095.703 290.631 C 1100.492 292.460, 1110.523 292.086, 1115.322 289.899 C 1117.367 288.967, 1119.851 288.956, 1126.235 289.848 C 1130.781 290.483, 1135.063 291.002, 1135.750 291.001 C 1136.716 291, 1136.999 285.485, 1136.996 266.750 C 1136.992 238.932, 1136.837 238.333, 1128.362 233.366 C 1124.248 230.956, 1122.365 230.538, 1114.549 230.301 C 1108.660 230.122, 1103.929 230.534, 1101 231.480 M 1150 260.481 L 1150 291 1158.500 291 L 1167 291 1167 275.136 C 1167 247.982, 1168.721 244, 1180.456 244 L 1186.801 244 1187.825 238.250 C 1189.225 230.394, 1188.136 229.544, 1178 230.583 C 1170 231.402, 1155.968 231.349, 1152.250 230.485 L 1150 229.962 1150 260.481 M 1206.287 232.991 C 1199.025 236.647, 1194.682 241.628, 1191.931 249.456 C 1186.271 265.560, 1192.898 282.478, 1207.500 289.199 C 1214.587 292.461, 1230.494 292.498, 1236.616 289.268 C 1241.894 286.483, 1247 282.188, 1247 280.533 C 1247 279.823, 1244.518 277.123, 1241.485 274.531 L 1235.970 269.819 1232.506 272.860 C 1228.410 276.457, 1223.425 277.625, 1218.753 276.083 C 1214.795 274.777, 1207.466 267.673, 1208.444 266.090 C 1208.897 265.358, 1216.188 265, 1230.657 265 L 1252.196 265 1251.510 258.750 C 1250.223 247.029, 1244.259 237.522, 1235.343 232.981 C 1231.490 231.019, 1228.659 230.447, 1221.500 230.188 C 1213.081 229.883, 1212.099 230.064, 1206.287 232.991 M 511 261 L 511 291 520.500 291 L 530 291 530 261 L 530 231 520.500 231 L 511 231 511 261 M 234.401 244.905 C 226.895 248.314, 223.243 257.147, 225.950 265.349 C 229.513 276.143, 245.669 279.078, 252.943 270.253 C 258.925 262.995, 258.851 254.143, 252.760 248.267 C 247.011 242.722, 241.451 241.704, 234.401 244.905 M 353.594 243.998 C 349.159 245.391, 344.358 250.650, 342.959 255.645 C 341.256 261.728, 342.845 266.723, 347.948 271.334 C 359.109 281.417, 375.034 273.856, 374.978 258.500 C 374.963 254.427, 371.157 247.996, 367.494 245.857 C 363.720 243.652, 357.388 242.805, 353.594 243.998 M 741.021 244.141 C 731.912 247.684, 728.456 259.502, 733.543 269.710 C 739.302 281.268, 751.931 280.603, 756.554 268.497 C 758.721 262.823, 758.140 254.004, 755.352 250.270 C 751.274 244.808, 745.573 242.370, 741.021 244.141 M 1044.462 244.138 C 1037.586 245.970, 1032.366 256.096, 1033.927 264.574 C 1035.486 273.043, 1040.003 277.500, 1047.025 277.500 C 1051.176 277.500, 1052.389 277.015, 1055.304 274.190 C 1062.352 267.359, 1062.762 255.179, 1056.188 247.928 C 1053.008 244.420, 1048.668 243.017, 1044.462 244.138 M 969.941 246.703 C 965.850 250.145, 964 254.598, 964 261 C 964 278.477, 981.568 284.569, 989.144 269.718 C 991.599 264.906, 991.335 256.482, 988.561 251.118 C 984.890 244.019, 975.715 241.844, 969.941 246.703 M 807.500 246.195 C 804.870 247.686, 804.034 249.019, 804.015 251.750 C 804 253.941, 804.273 254, 814.500 254 C 823.845 254, 824.997 253.808, 824.968 252.250 C 824.928 250.027, 823.113 247.653, 820.316 246.163 C 817.549 244.690, 810.122 244.708, 807.500 246.195 M 1213.077 247.589 C 1211.385 249.013, 1210 251.053, 1210 252.122 C 1210 253.948, 1210.677 254.048, 1221.169 253.783 C 1228.778 253.590, 1232.464 253.116, 1232.737 252.294 C 1232.957 251.631, 1230.969 249.727, 1228.319 248.063 C 1222.136 244.182, 1217.305 244.031, 1213.077 247.589 M 319.512 249.156 C 311.728 253.893, 311.307 263.163, 318.615 268.912 C 323.500 272.754, 332.356 270.904, 334.805 265.528 C 338.461 257.504, 334.163 249.161, 325.968 248.375 C 323.456 248.134, 320.630 248.476, 319.512 249.156 M 268.500 250.150 C 265.136 252.177, 264.065 254.304, 264.032 259.027 C 263.982 266.096, 268.011 270.914, 274.018 270.968 C 278.385 271.008, 284.738 266.891, 285.598 263.466 C 286.449 260.075, 285.335 254.992, 283.105 252.093 C 281.645 250.193, 280.120 249.607, 275.877 249.315 C 272.784 249.102, 269.651 249.456, 268.500 250.150 M 296.223 254.557 C 293.558 256.423, 293.395 259.168, 295.716 263.096 C 297.544 266.192, 299.785 266.709, 303.316 264.850 C 307.834 262.472, 308.297 258.165, 304.365 255.073 C 301.217 252.596, 299.204 252.468, 296.223 254.557 M 669.655 267.829 C 667.013 270.748, 667.606 273.789, 671.250 276.011 C 677.539 279.845, 685 277.442, 685 271.582 C 685 270.252, 685.273 268.452, 685.607 267.582 C 686.573 265.065, 671.951 265.291, 669.655 267.829 M 902.750 267.057 C 900.475 268.412, 900.432 274.289, 902.681 276.538 C 903.965 277.822, 905.547 278.106, 909.368 277.739 C 915.358 277.163, 918.266 274.348, 917.800 269.577 C 917.502 266.516, 917.466 266.499, 911 266.258 C 907.425 266.124, 903.712 266.484, 902.750 267.057 M 1104.174 268.314 C 1098.278 274.591, 1106.053 280.592, 1115.453 277.018 C 1118.402 275.897, 1120.383 271.662, 1119.536 268.289 C 1119.014 266.206, 1118.393 266, 1112.655 266 C 1107.356 266, 1106.001 266.370, 1104.174 268.314 M 291.975 276.027 C 288.478 279.770, 287.488 283.918, 288.998 288.493 C 290.541 293.168, 293.438 295, 299.288 295 C 305.164 295, 307.506 293.857, 309.490 290.020 C 312.175 284.827, 311.465 281.132, 306.958 276.845 C 303.632 273.681, 302.197 273, 298.859 273 C 295.633 273, 294.223 273.620, 291.975 276.027 M 235.314 283.894 C 231.214 286.466, 230 288.834, 230 294.260 C 230 299.134, 232.200 301.995, 237.490 304 C 242.025 305.718, 246.419 304.425, 250.034 300.309 C 252.795 297.163, 253.149 296.147, 252.684 292.683 C 251.561 284.310, 242.201 279.573, 235.314 283.894 M 266.073 284.635 C 263.263 288.207, 263.458 291.428, 266.635 293.927 C 270.305 296.814, 271.555 296.549, 274.464 292.268 C 277.523 287.766, 277.599 286.599, 275 284 C 272.209 281.209, 268.563 281.468, 266.073 284.635 M 325.694 284.026 C 320.540 288.081, 321.375 292.978, 327.569 295.023 C 330.808 296.092, 331.385 295.987, 333.576 293.928 C 334.909 292.676, 336 290.918, 336 290.022 C 336 288.533, 330.167 282, 328.837 282 C 328.525 282, 327.111 282.912, 325.694 284.026 M 352.567 283.946 C 347.143 287.522, 345.819 292.239, 348.464 298.568 C 350.032 302.321, 354.680 305, 359.623 305 C 363.334 305, 368.609 300.715, 369.968 296.597 C 373.118 287.054, 361.103 278.319, 352.567 283.946 M 293.008 304.185 C 286.974 307.294, 284 311.921, 284 318.198 C 284 333.737, 301.021 340.467, 311.365 329.018 C 315.506 324.434, 316.465 321.503, 315.697 315.776 C 314.232 304.856, 302.921 299.078, 293.008 304.185 M 258.400 310.400 C 253.416 315.384, 253.740 321.647, 259.299 327.750 C 261.923 330.631, 268.223 330.771, 272.689 328.048 C 279.106 324.135, 279.112 312.868, 272.699 308.958 C 267.586 305.841, 262.440 306.360, 258.400 310.400 M 328.217 308.561 C 323.375 311.952, 321.630 319.450, 324.425 324.855 C 326.951 329.739, 334.245 331.476, 339.915 328.544 C 342.733 327.087, 346 321.694, 346 318.500 C 346 315.306, 342.733 309.913, 339.915 308.456 C 336.239 306.555, 331.013 306.602, 328.217 308.561 M 239.444 311.969 C 238.269 312.439, 236.814 314.534, 236.045 316.863 C 234.447 321.707, 235.428 323.496, 240.265 324.558 C 242.881 325.133, 243.769 324.807, 245.696 322.567 C 246.963 321.094, 248 318.875, 248 317.635 C 248 313.206, 243.613 310.299, 239.444 311.969 M 354.733 313.750 C 353.866 314.712, 352.862 316.678, 352.503 318.118 C 351.981 320.209, 352.395 321.165, 354.560 322.868 C 357.625 325.279, 362.203 325.666, 363.872 323.655 C 364.486 322.915, 365.265 320.924, 365.604 319.231 C 366.169 316.406, 365.884 315.982, 362.150 314.076 C 357.207 311.555, 356.730 311.534, 354.733 313.750" stroke="none" fill="#153a3f" fill-rule="evenodd"/><path d="M 1 256 L 1 512 750.500 512 L 1500 512 1500 256 L 1500 0 750.500 0 L 1 0 1 256 M 294.684 185.437 C 287.426 188.048, 284 192.975, 284 200.802 C 284 213.169, 298.207 221.422, 308.010 214.750 C 313.660 210.905, 315.500 207.551, 315.500 201.099 C 315.500 196.336, 315.017 194.711, 312.698 191.671 C 307.984 185.491, 301.130 183.119, 294.684 185.437 M 328.253 190.646 C 325.944 191.785, 324.679 193.338, 323.874 196.027 C 321.303 204.607, 325.698 210.986, 334.411 211.323 C 339.716 211.529, 342.229 209.585, 344.564 203.472 C 346.573 198.210, 345.326 194.804, 340.102 191.287 C 336.125 188.610, 332.754 188.428, 328.253 190.646 M 261.419 191.053 C 256.793 192.429, 254.500 195.526, 254.500 200.399 C 254.500 211.981, 267.535 216.735, 274.433 207.669 C 278.818 201.907, 278.707 195.172, 274.182 192.346 C 271.534 190.692, 264.894 190.019, 261.419 191.053 M 236.637 195.506 C 233.656 198.487, 233.642 201.017, 236.590 204.094 C 238.121 205.692, 240.210 207, 241.233 207 C 243.506 207, 248 202.683, 248 200.500 C 248 198.059, 243.389 194, 240.617 194 C 239.256 194, 237.465 194.678, 236.637 195.506 M 355.259 195.250 C 354.717 195.938, 353.984 198.395, 353.631 200.712 C 352.884 205.607, 354.396 207, 360.459 207 C 364.862 207, 366.563 203.912, 364.856 199.016 C 363.274 194.478, 357.618 192.259, 355.259 195.250 M 1258 245.500 L 1258 291 1267 291 L 1276 291 1276 245.500 L 1276 200 1267 200 L 1258 200 1258 245.500 M 515.775 205.559 C 508.579 209.464, 509.536 219.372, 517.359 221.953 C 519.591 222.690, 521.557 222.739, 523.238 222.099 C 526.025 221.040, 530 216.069, 530 213.643 C 530 210.684, 527.595 206.842, 524.855 205.425 C 521.411 203.644, 519.245 203.676, 515.775 205.559 M 236.096 215.265 C 232.268 217.232, 229.759 221.401, 229.639 225.997 C 229.544 229.614, 230.033 230.642, 233.250 233.590 C 237.471 237.459, 242.027 238.072, 247.093 235.452 C 250.587 233.645, 252.009 230.512, 251.978 224.685 C 251.934 216.368, 243.585 211.416, 236.096 215.265 M 609 221.855 L 609 229.711 605.750 230.639 C 602.544 231.555, 602.496 231.659, 602.205 238.244 L 601.910 244.920 605.205 245.771 L 608.500 246.622 609.168 260.649 C 609.933 276.719, 611.001 281.659, 614.646 285.991 C 619.288 291.507, 629.002 293.638, 636.922 290.877 C 640.841 289.511, 641.966 286.879, 641.270 280.705 L 640.741 276.011 635.874 276.223 C 628.131 276.560, 627.566 275.475, 627.152 259.465 L 626.804 246 633.902 246 L 641 246 641 238.614 L 641 231.227 636.341 230.528 C 627.214 229.160, 627 228.942, 627 221.025 L 627 214 618 214 L 609 214 609 221.855 M 352.954 216.282 C 349.673 218.867, 348 222.532, 348 227.134 C 348 231.142, 348.447 232.198, 351.077 234.411 C 356.479 238.957, 367.635 236.875, 369.509 230.970 C 370.851 226.745, 369.091 220.254, 365.868 217.543 C 362.533 214.736, 355.755 214.074, 352.954 216.282 M 267.066 225.643 C 264.317 229.138, 263.703 231.576, 264.973 233.950 C 267.314 238.323, 274.926 237.451, 277.157 232.556 C 278.613 229.360, 276.380 225.677, 272.078 224.177 C 269.384 223.238, 268.831 223.400, 267.066 225.643 M 291.974 226.872 C 288.272 230.574, 287.409 234.161, 289.131 238.686 C 290.976 243.532, 294.862 246.273, 299.889 246.273 C 307.890 246.273, 313.303 239.293, 311.074 231.852 C 309.477 226.523, 305.851 224, 299.788 224 C 295.679 224, 294.362 224.484, 291.974 226.872 M 323.655 225.829 C 318.627 231.385, 326.260 239.607, 333.066 235.965 C 334.514 235.190, 335 233.858, 335 230.665 C 335 228.319, 334.460 225.860, 333.800 225.200 C 331.932 223.332, 325.557 223.728, 323.655 225.829 M 673.407 230.002 C 671.155 230.464, 667.628 231.546, 665.569 232.407 C 661.727 234.012, 653.999 239.642, 654.001 240.834 C 654.003 242.055, 663.761 247, 666.147 246.989 C 667.441 246.983, 670.690 246.314, 673.366 245.502 C 678.489 243.948, 679.142 244.075, 682.750 247.323 C 686.752 250.926, 685.650 251.693, 675.737 252.212 C 664.796 252.784, 658.979 254.982, 654.299 260.312 C 650.365 264.793, 649.331 269.776, 650.840 276.989 C 652.224 283.608, 654.387 286.756, 659.594 289.734 C 664.237 292.389, 673.251 292.723, 679.500 290.471 C 684.754 288.578, 687.039 288.651, 696 291 C 700.125 292.081, 703.612 292.973, 703.750 292.983 C 703.888 292.992, 704 283.397, 704 271.659 C 704 248.472, 703.233 243.616, 698.611 237.557 C 693.937 231.429, 682.767 228.080, 673.407 230.002 M 448.703 230.731 C 445.538 231.061, 445.003 231.436, 445.494 232.982 C 445.818 234.003, 450.612 245.337, 456.147 258.169 C 461.682 271.001, 466.887 283.137, 467.714 285.139 C 470.169 291.085, 476.807 292.831, 481.446 288.750 C 483.168 287.235, 487.768 277.546, 495.522 259.103 C 501.857 244.035, 506.898 231.565, 506.724 231.390 C 506.550 231.216, 502.989 230.945, 498.812 230.787 C 490.461 230.471, 488.111 231.596, 486.207 236.822 C 485.670 238.295, 483.330 244.787, 481.006 251.250 C 478.682 257.712, 476.474 263, 476.099 263 C 475.493 263, 473.471 257.862, 466.723 239.174 C 465.366 235.417, 463.872 233.283, 461.650 231.928 C 458.599 230.068, 456.735 229.896, 448.703 230.731 M 543.250 230.732 L 539 231.115 539 261.057 L 539 291 548 291 L 557 291 557.004 271.250 C 557.007 253.380, 557.195 251.193, 558.973 248.277 C 561.142 244.720, 563.764 243.699, 569.496 244.180 C 572.290 244.415, 573.859 245.250, 575.401 247.321 C 577.342 249.931, 577.525 251.677, 577.839 270.571 L 578.178 291 587.215 291 L 596.252 291 595.789 267.750 C 595.278 242.117, 594.744 239.487, 589.091 234.730 C 583.585 230.097, 579.122 229.358, 568.050 231.248 C 559.609 232.688, 557.886 232.719, 554.443 231.492 C 552.274 230.720, 549.825 230.147, 549 230.219 C 548.175 230.291, 545.587 230.522, 543.250 230.732 M 731.385 231.658 C 725.681 233.624, 719.970 238.801, 716.526 245.129 C 714.171 249.457, 713.535 252.027, 713.189 258.621 C 712.586 270.107, 714.623 275.783, 721.991 283.151 C 730.207 291.367, 739.594 293.832, 750.341 290.598 L 755 289.196 754.978 291.848 C 754.947 295.594, 751.548 302.637, 749.151 303.919 C 745.854 305.684, 740.619 305.163, 734.519 302.466 C 731.368 301.072, 728.026 300.174, 727.093 300.470 C 726.161 300.766, 723.643 302.805, 721.499 305.001 L 717.601 308.993 721.038 312.539 C 733.022 324.904, 752.723 324.164, 765.201 310.881 C 773.635 301.904, 774 299.919, 774 263.056 L 774 231.188 769.250 230.652 C 759.589 229.563, 735.617 230.200, 731.385 231.658 M 802 232.013 C 794.804 234.552, 786.940 242.655, 784.478 250.067 C 780.424 262.271, 785.415 280.019, 794.641 286.208 C 800.495 290.135, 809.905 292.334, 818.480 291.779 C 826.686 291.248, 833.109 288.640, 837.842 283.918 L 841.183 280.584 835.397 275.450 L 829.611 270.316 825.476 273.230 C 819.853 277.194, 814.508 277.810, 809.206 275.105 C 804.854 272.885, 803 270.489, 803 267.086 C 803 265.100, 803.601 265.033, 823.750 264.770 L 844.500 264.500 844.258 258.203 C 844.115 254.499, 843.142 249.876, 841.894 246.976 C 835.984 233.238, 817.828 226.428, 802 232.013 M 899.183 231.854 C 894.406 233.547, 887 239.200, 887 241.154 C 887 242.620, 895.703 247, 898.588 246.985 C 900.190 246.977, 903.400 246.309, 905.723 245.500 C 910.613 243.796, 913.920 244.620, 916.399 248.159 C 917.280 249.416, 918 250.728, 918 251.074 C 918 251.420, 914.513 251.979, 910.250 252.316 C 901.202 253.030, 892.810 255.342, 888.979 258.174 C 887.488 259.276, 885.258 261.975, 884.023 264.173 C 882.173 267.464, 881.850 269.297, 882.186 274.573 C 883.047 288.096, 892.267 293.238, 909.977 290.073 C 915.531 289.081, 918.201 289.143, 925.589 290.435 C 930.490 291.292, 934.837 291.995, 935.250 291.997 C 935.663 291.999, 936 281.496, 936 268.657 C 936 246.148, 935.917 245.157, 933.672 240.907 C 932.145 238.015, 929.681 235.469, 926.503 233.500 C 922.250 230.864, 920.620 230.468, 913.081 230.235 C 906.691 230.038, 903.142 230.451, 899.183 231.854 M 948 274.500 L 948 319 957 319 L 966 319 966 303.883 L 966 288.767 968.250 289.475 C 969.487 289.864, 974.349 290.418, 979.052 290.704 C 986.413 291.153, 988.327 290.915, 992.794 288.993 C 1003.182 284.525, 1009.008 274.172, 1008.990 260.212 C 1008.983 254.234, 1008.455 251.376, 1006.642 247.500 C 1003.936 241.716, 996.729 234.688, 990.690 231.946 C 985.684 229.674, 976.899 229.419, 971.327 231.385 C 968.017 232.553, 966.234 232.561, 959.951 231.437 C 955.853 230.705, 951.487 230.082, 950.250 230.053 L 948 230 948 274.500 M 1018 274.515 L 1018 319 1027 319 L 1036 319 1036 303.883 L 1036 288.767 1038.750 289.345 C 1051.506 292.028, 1053.879 292.177, 1059.209 290.628 C 1066.185 288.600, 1071.868 283.620, 1075.498 276.355 C 1078.070 271.207, 1078.427 269.414, 1078.454 261.500 C 1078.478 254.157, 1078.051 251.540, 1076.134 247.286 C 1070.949 235.779, 1058.961 228.870, 1047.075 230.539 C 1039.649 231.582, 1031.857 231.660, 1024.250 230.765 L 1018 230.031 1018 274.515 M 1101 231.480 C 1096.010 233.092, 1089 238.379, 1089 240.531 C 1089 242.635, 1097.210 247.005, 1101.088 246.965 C 1102.965 246.945, 1105.625 246.286, 1107 245.500 C 1110.594 243.446, 1113.623 243.679, 1115.961 246.189 C 1120.082 250.612, 1118.868 251.673, 1109.046 252.233 C 1098.546 252.832, 1092.219 255.461, 1087.769 261.074 C 1084.527 265.163, 1082.821 273.273, 1084.053 278.737 C 1085.079 283.282, 1090.228 288.540, 1095.703 290.631 C 1100.492 292.460, 1110.523 292.086, 1115.322 289.899 C 1117.367 288.967, 1119.851 288.956, 1126.235 289.848 C 1130.781 290.483, 1135.063 291.002, 1135.750 291.001 C 1136.716 291, 1136.999 285.485, 1136.996 266.750 C 1136.992 238.932, 1136.837 238.333, 1128.362 233.366 C 1124.248 230.956, 1122.365 230.538, 1114.549 230.301 C 1108.660 230.122, 1103.929 230.534, 1101 231.480 M 1150 260.481 L 1150 291 1158.500 291 L 1167 291 1167 275.136 C 1167 247.982, 1168.721 244, 1180.456 244 L 1186.801 244 1187.825 238.250 C 1189.225 230.394, 1188.136 229.544, 1178 230.583 C 1170 231.402, 1155.968 231.349, 1152.250 230.485 L 1150 229.962 1150 260.481 M 1206.287 232.991 C 1199.025 236.647, 1194.682 241.628, 1191.931 249.456 C 1186.271 265.560, 1192.898 282.478, 1207.500 289.199 C 1214.587 292.461, 1230.494 292.498, 1236.616 289.268 C 1241.894 286.483, 1247 282.188, 1247 280.533 C 1247 279.823, 1244.518 277.123, 1241.485 274.531 L 1235.970 269.819 1232.506 272.860 C 1228.410 276.457, 1223.425 277.625, 1218.753 276.083 C 1214.795 274.777, 1207.466 267.673, 1208.444 266.090 C 1208.897 265.358, 1216.188 265, 1230.657 265 L 1252.196 265 1251.510 258.750 C 1250.223 247.029, 1244.259 237.522, 1235.343 232.981 C 1231.490 231.019, 1228.659 230.447, 1221.500 230.188 C 1213.081 229.883, 1212.099 230.064, 1206.287 232.991 M 511 261 L 511 291 520.500 291 L 530 291 530 261 L 530 231 520.500 231 L 511 231 511 261 M 234.401 244.905 C 226.895 248.314, 223.243 257.147, 225.950 265.349 C 229.513 276.143, 245.669 279.078, 252.943 270.253 C 258.925 262.995, 258.851 254.143, 252.760 248.267 C 247.011 242.722, 241.451 241.704, 234.401 244.905 M 353.594 243.998 C 349.159 245.391, 344.358 250.650, 342.959 255.645 C 341.256 261.728, 342.845 266.723, 347.948 271.334 C 359.109 281.417, 375.034 273.856, 374.978 258.500 C 374.963 254.427, 371.157 247.996, 367.494 245.857 C 363.720 243.652, 357.388 242.805, 353.594 243.998 M 741.021 244.141 C 731.912 247.684, 728.456 259.502, 733.543 269.710 C 739.302 281.268, 751.931 280.603, 756.554 268.497 C 758.721 262.823, 758.140 254.004, 755.352 250.270 C 751.274 244.808, 745.573 242.370, 741.021 244.141 M 1044.462 244.138 C 1037.586 245.970, 1032.366 256.096, 1033.927 264.574 C 1035.486 273.043, 1040.003 277.500, 1047.025 277.500 C 1051.176 277.500, 1052.389 277.015, 1055.304 274.190 C 1062.352 267.359, 1062.762 255.179, 1056.188 247.928 C 1053.008 244.420, 1048.668 243.017, 1044.462 244.138 M 969.941 246.703 C 965.850 250.145, 964 254.598, 964 261 C 964 278.477, 981.568 284.569, 989.144 269.718 C 991.599 264.906, 991.335 256.482, 988.561 251.118 C 984.890 244.019, 975.715 241.844, 969.941 246.703 M 807.500 246.195 C 804.870 247.686, 804.034 249.019, 804.015 251.750 C 804 253.941, 804.273 254, 814.500 254 C 823.845 254, 824.997 253.808, 824.968 252.250 C 824.928 250.027, 823.113 247.653, 820.316 246.163 C 817.549 244.690, 810.122 244.708, 807.500 246.195 M 1213.077 247.589 C 1211.385 249.013, 1210 251.053, 1210 252.122 C 1210 253.948, 1210.677 254.048, 1221.169 253.783 C 1228.778 253.590, 1232.464 253.116, 1232.737 252.294 C 1232.957 251.631, 1230.969 249.727, 1228.319 248.063 C 1222.136 244.182, 1217.305 244.031, 1213.077 247.589 M 319.512 249.156 C 311.728 253.893, 311.307 263.163, 318.615 268.912 C 323.500 272.754, 332.356 270.904, 334.805 265.528 C 338.461 257.504, 334.163 249.161, 325.968 248.375 C 323.456 248.134, 320.630 248.476, 319.512 249.156 M 268.500 250.150 C 265.136 252.177, 264.065 254.304, 264.032 259.027 C 263.982 266.096, 268.011 270.914, 274.018 270.968 C 278.385 271.008, 284.738 266.891, 285.598 263.466 C 286.449 260.075, 285.335 254.992, 283.105 252.093 C 281.645 250.193, 280.120 249.607, 275.877 249.315 C 272.784 249.102, 269.651 249.456, 268.500 250.150 M 296.223 254.557 C 293.558 256.423, 293.395 259.168, 295.716 263.096 C 297.544 266.192, 299.785 266.709, 303.316 264.850 C 307.834 262.472, 308.297 258.165, 304.365 255.073 C 301.217 252.596, 299.204 252.468, 296.223 254.557 M 669.655 267.829 C 667.013 270.748, 667.606 273.789, 671.250 276.011 C 677.539 279.845, 685 277.442, 685 271.582 C 685 270.252, 685.273 268.452, 685.607 267.582 C 686.573 265.065, 671.951 265.291, 669.655 267.829 M 902.750 267.057 C 900.475 268.412, 900.432 274.289, 902.681 276.538 C 903.965 277.822, 905.547 278.106, 909.368 277.739 C 915.358 277.163, 918.266 274.348, 917.800 269.577 C 917.502 266.516, 917.466 266.499, 911 266.258 C 907.425 266.124, 903.712 266.484, 902.750 267.057 M 1104.174 268.314 C 1098.278 274.591, 1106.053 280.592, 1115.453 277.018 C 1118.402 275.897, 1120.383 271.662, 1119.536 268.289 C 1119.014 266.206, 1118.393 266, 1112.655 266 C 1107.356 266, 1106.001 266.370, 1104.174 268.314 M 291.975 276.027 C 288.478 279.770, 287.488 283.918, 288.998 288.493 C 290.541 293.168, 293.438 295, 299.288 295 C 305.164 295, 307.506 293.857, 309.490 290.020 C 312.175 284.827, 311.465 281.132, 306.958 276.845 C 303.632 273.681, 302.197 273, 298.859 273 C 295.633 273, 294.223 273.620, 291.975 276.027 M 235.314 283.894 C 231.214 286.466, 230 288.834, 230 294.260 C 230 299.134, 232.200 301.995, 237.490 304 C 242.025 305.718, 246.419 304.425, 250.034 300.309 C 252.795 297.163, 253.149 296.147, 252.684 292.683 C 251.561 284.310, 242.201 279.573, 235.314 283.894 M 266.073 284.635 C 263.263 288.207, 263.458 291.428, 266.635 293.927 C 270.305 296.814, 271.555 296.549, 274.464 292.268 C 277.523 287.766, 277.599 286.599, 275 284 C 272.209 281.209, 268.563 281.468, 266.073 284.635 M 325.694 284.026 C 320.540 288.081, 321.375 292.978, 327.569 295.023 C 330.808 296.092, 331.385 295.987, 333.576 293.928 C 334.909 292.676, 336 290.918, 336 290.022 C 336 288.533, 330.167 282, 328.837 282 C 328.525 282, 327.111 282.912, 325.694 284.026 M 352.567 283.946 C 347.143 287.522, 345.819 292.239, 348.464 298.568 C 350.032 302.321, 354.680 305, 359.623 305 C 363.334 305, 368.609 300.715, 369.968 296.597 C 373.118 287.054, 361.103 278.319, 352.567 283.946 M 293.008 304.185 C 286.974 307.294, 284 311.921, 284 318.198 C 284 333.737, 301.021 340.467, 311.365 329.018 C 315.506 324.434, 316.465 321.503, 315.697 315.776 C 314.232 304.856, 302.921 299.078, 293.008 304.185 M 258.400 310.400 C 253.416 315.384, 253.740 321.647, 259.299 327.750 C 261.923 330.631, 268.223 330.771, 272.689 328.048 C 279.106 324.135, 279.112 312.868, 272.699 308.958 C 267.586 305.841, 262.440 306.360, 258.400 310.400 M 328.217 308.561 C 323.375 311.952, 321.630 319.450, 324.425 324.855 C 326.951 329.739, 334.245 331.476, 339.915 328.544 C 342.733 327.087, 346 321.694, 346 318.500 C 346 315.306, 342.733 309.913, 339.915 308.456 C 336.239 306.555, 331.013 306.602, 328.217 308.561 M 239.444 311.969 C 238.269 312.439, 236.814 314.534, 236.045 316.863 C 234.447 321.707, 235.428 323.496, 240.265 324.558 C 242.881 325.133, 243.769 324.807, 245.696 322.567 C 246.963 321.094, 248 318.875, 248 317.635 C 248 313.206, 243.613 310.299, 239.444 311.969 M 354.733 313.750 C 353.866 314.712, 352.862 316.678, 352.503 318.118 C 351.981 320.209, 352.395 321.165, 354.560 322.868 C 357.625 325.279, 362.203 325.666, 363.872 323.655 C 364.486 322.915, 365.265 320.924, 365.604 319.231 C 366.169 316.406, 365.884 315.982, 362.150 314.076 C 357.207 311.555, 356.730 311.534, 354.733 313.750" stroke="none" fill="#fbfbfb" fill-rule="evenodd"/></svg>